<?xml version="1.0" encoding="UTF-8"?>
<svg xmlns="http://www.w3.org/2000/svg" xmlns:xlink="http://www.w3.org/1999/xlink" width="128pt" height="128pt" viewBox="0 0 128 128" version="1.1">
<g id="surface6256304">
<path style=" stroke:none;fill-rule:nonzero;fill:rgb(80%,80%,80%);fill-opacity:1;" d="M 1.28125 64 C 1.28125 29.359375 29.359375 1.28125 64 1.28125 C 98.640625 1.28125 126.71875 29.359375 126.71875 64 C 126.71875 98.640625 98.640625 126.71875 64 126.71875 C 29.359375 126.71875 1.28125 98.640625 1.28125 64 Z M 64 124.160156 C 97.226562 124.160156 124.160156 97.226562 124.160156 64 C 124.160156 30.773438 97.226562 3.839844 64 3.839844 C 30.773438 3.839844 3.839844 30.773438 3.839844 64 C 3.839844 97.226562 30.773438 124.160156 64 124.160156 Z M 64 124.160156 "/>
<path style=" stroke:none;fill-rule:nonzero;fill:rgb(75.686275%,75.294118%,75.294118%);fill-opacity:1;" d="M 64 20.847656 L 62.15625 22.078125 L 22.796875 48.421875 L 21.359375 49.34375 L 21.359375 78.65625 L 22.796875 79.578125 L 62.15625 105.921875 L 64 107.152344 L 65.84375 105.921875 L 105.203125 79.578125 L 106.640625 78.65625 L 106.640625 49.34375 L 105.203125 48.421875 L 65.84375 22.078125 Z M 60.71875 30.890625 L 60.71875 48.726562 L 43.808594 60.105469 L 30.585938 51.1875 Z M 67.28125 30.890625 L 97.414062 51.1875 L 84.191406 60.105469 L 67.28125 48.726562 Z M 64 54.46875 L 78.246094 64 L 64 73.53125 L 49.753906 64 Z M 27.921875 57.234375 L 37.964844 64 L 27.921875 70.765625 Z M 100.078125 57.234375 L 100.078125 70.765625 L 90.035156 64 Z M 43.910156 67.894531 L 60.71875 79.273438 L 60.71875 97.109375 L 30.585938 76.8125 Z M 84.089844 67.894531 L 97.414062 76.8125 L 67.28125 97.109375 L 67.28125 79.273438 Z M 84.089844 67.894531 "/>
</g>
</svg>
