<?xml version="1.0" encoding="UTF-8"?>
<svg xmlns="http://www.w3.org/2000/svg" xmlns:xlink="http://www.w3.org/1999/xlink" width="30pt" height="30pt" viewBox="0 0 30 30" version="1.1">
<g id="surface5663544">
<path style=" stroke:none;fill-rule:nonzero;fill:rgb(75.686275%,75.294118%,75.294118%);fill-opacity:1;" d="M 0 15 C 0 6.714844 6.714844 0 15 0 C 23.285156 0 30 6.714844 30 15 C 30 23.285156 23.285156 30 15 30 C 6.714844 30 0 23.285156 0 15 Z M 15 29.398438 C 22.953125 29.398438 29.398438 22.953125 29.398438 15 C 29.398438 7.046875 22.953125 0.601562 15 0.601562 C 7.046875 0.601562 0.601562 7.046875 0.601562 15 C 0.601562 22.953125 7.046875 29.398438 15 29.398438 Z M 15 29.398438 "/>
<path style=" stroke:none;fill-rule:nonzero;fill:rgb(75.686275%,75.294118%,75.294118%);fill-opacity:1;" d="M 10.359375 22.699219 L 6.40625 22.699219 L 6.40625 10.835938 L 10.359375 10.835938 Z M 8.382812 9.253906 C 7.289062 9.253906 6.40625 8.367188 6.40625 7.277344 C 6.40625 6.183594 7.289062 5.300781 8.382812 5.300781 C 9.472656 5.300781 10.359375 6.1875 10.359375 7.277344 C 10.359375 8.367188 9.472656 9.253906 8.382812 9.253906 Z M 24.59375 22.699219 L 20.792969 22.699219 L 20.792969 16.925781 C 20.792969 15.550781 20.765625 13.777344 18.816406 13.777344 C 16.835938 13.777344 16.53125 15.277344 16.53125 16.828125 L 16.53125 22.699219 L 12.730469 22.699219 L 12.730469 10.828125 L 16.382812 10.828125 L 16.382812 12.449219 L 16.433594 12.449219 C 16.941406 11.515625 18.179688 10.53125 20.03125 10.53125 C 23.882812 10.53125 24.59375 12.992188 24.59375 16.1875 Z M 24.59375 22.699219 "/>
</g>
</svg>
